<svg xmlns="http://www.w3.org/2000/svg" viewBox="0 0 6000 1347" role="img" aria-label="Spectra, the Association for LGBTQ+ Mathematicians"><path fill="currentColor" fill-rule="evenodd" d="M332.6 87.0 379.4 87.0 409.5 88.9 438.6 92.3 481.4 100.7 511.6 109.7 540.4 121.3 584.4 147.2 598.6 159.8 603.1 162.1 622.9 181.9 624.0 184.5 630.0 190.3 640.0 203.7 654.7 227.4 668.5 256.4 678.4 285.8 685.2 314.5 690.8 353.5 691.9 375.2 690.3 377.0 666.7 377.0 664.9 375.5 663.8 351.5 659.6 321.3 652.4 290.7 643.6 265.6 631.8 241.5 617.9 219.4 602.0 201.1 599.7 196.7 586.3 183.3 583.5 182.0 576.6 175.0 557.4 161.0 525.3 143.7 489.4 130.6 445.5 120.8 380.5 114.2 316.6 115.0 250.5 123.8 200.6 137.6 154.4 159.3 117.7 186.3 104.3 199.7 102.0 204.1 85.9 222.8 77.2 236.8 67.6 257.4 60.8 280.6 56.0 313.5 56.0 352.5 61.5 387.5 68.5 408.5 82.1 433.4 93.5 446.4 96.2 451.2 121.3 474.9 139.7 488.1 161.6 499.3 165.5 502.6 225.5 526.4 262.5 536.3 366.5 559.4 490.5 591.6 529.4 602.5 572.6 618.5 616.6 641.3 647.0 664.1 671.9 691.4 692.6 725.8 702.4 753.8 708.1 782.6 711.0 815.5 710.8 846.8 707.6 875.7 701.4 902.6 692.2 927.3 674.0 959.2 660.0 975.8 659.0 978.5 651.0 986.5 649.8 989.2 632.2 1005.8 599.4 1030.0 577.4 1041.3 575.2 1043.5 572.8 1044.0 570.2 1046.0 566.6 1046.7 544.5 1057.5 515.5 1067.4 478.4 1076.2 434.4 1083.1 396.4 1086.0 344.5 1085.9 305.5 1083.1 261.4 1076.7 229.4 1069.5 190.2 1057.2 168.6 1048.2 129.8 1027.1 102.2 1006.9 77.2 983.2 74.9 978.8 57.1 958.6 42.2 935.4 27.8 906.6 15.6 873.6 6.4 834.6 2.2 803.5 1.0 748.5 2.6 747.0 25.4 747.0 27.1 748.6 31.3 812.5 42.6 865.8 51.4 890.2 63.2 915.4 91.1 957.1 125.4 991.0 144.6 1005.0 167.6 1017.2 171.5 1020.6 220.6 1040.4 273.4 1052.6 340.6 1060.0 404.6 1059.8 463.7 1052.6 500.3 1044.4 525.4 1036.5 570.2 1016.2 610.1 988.9 644.0 953.6 655.8 936.6 666.2 917.4 678.2 882.5 683.8 842.5 683.0 803.6 678.2 772.5 669.6 744.8 656.8 720.5 642.2 703.4 639.8 698.8 609.8 671.1 589.5 657.2 562.5 642.8 507.5 621.6 470.5 611.7 393.5 595.6 231.5 556.4 198.7 546.5 165.7 533.6 118.5 508.8 98.2 493.9 92.5 487.8 87.9 484.7 61.2 453.6 45.4 426.2 35.7 398.4 30.3 368.6 29.0 311.6 30.8 292.6 38.7 256.5 47.4 233.4 60.0 210.7 79.1 184.8 94.9 168.2 99.2 165.9 119.4 148.2 149.6 129.8 183.6 114.6 213.6 104.6 255.4 95.4 299.4 89.2ZM2914.5 131.0 3064.5 131.0 3066.0 132.5 3066.0 336.5 3067.5 338.0 3202.5 338.0 3204.0 339.5 3204.0 450.5 3202.5 452.0 3067.5 452.0 3066.0 453.5 3066.0 838.5 3069.8 873.8 3072.8 883.4 3081.2 897.6 3083.5 900.1 3092.5 906.9 3105.4 912.4 3129.7 916.0 3163.6 915.9 3179.4 915.1 3202.1 911.3 3204.0 912.6 3203.0 1027.4 3201.5 1029.2 3136.5 1035.8 3099.4 1036.9 3050.6 1034.1 3010.4 1026.4 2985.6 1017.1 2956.5 998.5 2947.5 989.5 2937.2 975.8 2924.6 947.4 2916.9 909.5 2913.0 860.5 2913.0 453.5 2911.5 452.0 2800.5 452.0 2799.0 450.4 2798.0 340.6 2799.5 339.0 2911.5 338.0 2913.0 336.5 2913.0 132.5ZM4914.8 131.0 4916.2 131.0 4918.2 132.4 4925.8 140.6 4925.9 143.1 4563.1 505.9 4560.5 507.0 4558.8 505.8 4550.0 496.5 4551.1 493.9 4912.9 132.1ZM4976.0 159.0 4988.0 159.0 4990.0 160.5 4990.0 477.5 4988.0 479.0 4976.0 479.0 4974.0 477.5 4974.0 160.5ZM4067.7 287.0 4120.6 288.2 4175.4 293.8 4214.4 301.7 4253.4 315.4 4289.5 336.1 4314.8 358.9 4334.1 384.7 4347.2 410.4 4360.2 456.5 4365.0 505.5 4366.1 934.7 4368.2 961.5 4372.8 989.5 4386.4 1028.4 4385.5 1030.0 4155.5 1030.0 4153.4 1028.2 4146.8 1006.4 4140.2 952.6 4139.2 948.8 4137.5 948.0 4126.1 970.3 4110.9 991.0 4087.7 1011.8 4058.3 1028.2 4023.5 1039.5 3997.6 1043.8 3945.6 1044.0 3926.6 1042.2 3880.4 1031.3 3858.6 1021.7 3842.3 1011.8 3835.8 1005.8 3830.8 1002.7 3813.2 984.3 3792.4 950.6 3783.6 927.3 3774.8 887.3 3772.0 860.5 3772.2 805.2 3775.3 776.5 3783.6 739.5 3794.4 712.5 3812.1 684.9 3830.9 665.1 3835.5 662.6 3847.3 652.2 3868.6 639.2 3897.4 625.8 3959.5 605.6 4077.5 578.4 4104.3 567.7 4118.2 558.2 4127.9 547.4 4135.1 532.0 4138.9 513.3 4137.5 479.2 4133.0 465.2 4124.8 451.9 4117.2 445.1 4102.0 437.9 4097.2 436.5 4087.1 435.0 4067.9 435.0 4055.5 436.8 4040.9 442.2 4033.8 446.8 4030.8 449.5 4023.2 458.5 4021.4 461.7 4013.6 485.3 4009.1 529.4 4007.5 531.0 3801.5 531.0 3800.0 529.4 3800.0 507.6 3802.8 479.8 3808.6 450.8 3816.5 426.5 3831.0 398.7 3856.0 365.3 3879.8 343.1 3909.5 323.3 3943.5 307.7 3974.4 298.4 4024.4 290.2ZM1741.5 320.0 1808.8 321.2 1830.5 324.4 1860.8 331.6 1888.5 341.8 1912.6 354.0 1934.4 368.0 1949.8 380.9 1952.5 382.0 1958.5 388.0 1961.2 389.2 1982.8 410.8 1984.0 413.5 1990.0 419.5 1991.1 422.2 2003.8 437.4 2019.2 461.6 2035.2 493.4 2055.4 551.7 2063.6 589.3 2068.8 624.2 2072.0 668.7 2071.0 706.3 2069.5 708.0 1542.5 708.0 1541.1 709.5 1543.3 752.5 1554.6 807.6 1568.8 846.7 1579.0 866.6 1593.0 888.4 1619.9 919.7 1624.1 922.1 1637.5 935.1 1658.5 949.9 1691.5 966.4 1728.8 976.2 1756.6 978.9 1807.8 976.6 1842.5 969.4 1875.5 956.6 1908.2 934.8 1929.8 913.2 1932.4 908.5 1943.1 896.3 1955.7 876.6 1968.3 851.4 1979.5 821.5 1983.7 803.5 1985.5 802.0 2067.5 802.0 2068.6 803.5 2054.4 854.5 2031.6 906.6 2002.9 950.6 1973.1 982.9 1941.3 1007.0 1907.4 1024.5 1869.5 1037.3 1821.5 1046.1 1755.4 1048.9 1723.5 1046.8 1681.2 1039.5 1659.5 1033.5 1630.5 1022.2 1598.5 1004.8 1573.2 986.9 1543.2 958.2 1542.0 955.5 1535.0 948.7 1525.0 935.3 1507.8 908.4 1493.7 880.4 1483.5 855.5 1473.5 823.5 1459.8 753.5 1457.0 722.5 1456.1 668.5 1458.9 628.5 1464.4 591.5 1473.6 551.5 1486.5 512.6 1504.4 473.4 1507.9 469.2 1519.0 448.6 1538.0 422.4 1557.8 400.4 1562.2 397.6 1569.8 389.4 1574.4 386.8 1591.4 372.1 1616.6 355.9 1647.5 340.8 1676.5 330.6 1707.7 323.8ZM3688.5 320.0 3725.7 320.4 3749.3 326.6 3751.0 328.5 3751.0 501.5 3749.3 502.8 3708.4 497.0 3669.5 496.2 3633.6 500.4 3604.5 508.8 3574.2 524.2 3563.8 531.8 3556.5 539.0 3553.8 540.3 3535.2 561.2 3525.3 576.4 3515.7 595.6 3508.6 614.6 3501.4 644.4 3495.0 703.5 3495.0 1028.5 3493.5 1030.0 3306.5 1030.0 3305.0 1028.5 3305.0 339.5 3306.5 338.0 3484.5 338.0 3486.0 339.5 3486.0 465.5 3486.5 467.0 3487.5 467.0 3499.9 441.6 3519.1 412.9 3550.9 379.1 3555.3 376.8 3571.5 363.1 3595.6 348.2 3620.4 336.5 3649.6 326.7ZM2446.5 322.1 2506.7 324.2 2543.3 329.8 2568.4 335.6 2614.6 352.5 2658.2 378.1 2689.8 405.9 2691.0 408.5 2698.0 415.5 2699.2 418.3 2713.0 434.6 2724.8 453.5 2735.2 474.5 2745.4 502.2 2756.0 554.2 2756.0 558.8 2754.5 561.0 2640.5 561.0 2638.6 559.5 2628.2 523.3 2619.2 503.7 2603.8 480.3 2585.8 461.1 2563.2 444.9 2539.5 433.7 2514.2 426.8 2486.5 423.0 2447.5 423.0 2422.6 425.8 2397.4 431.6 2366.6 443.9 2346.4 456.1 2334.5 466.6 2329.8 469.2 2306.1 494.4 2287.2 523.8 2277.4 544.8 2268.6 569.2 2255.8 631.5 2253.0 661.5 2253.0 720.5 2257.3 757.6 2262.4 782.5 2271.7 813.7 2279.8 833.6 2293.0 858.4 2307.0 878.6 2325.8 898.8 2362.6 924.8 2378.4 932.2 2400.2 939.4 2436.6 945.0 2485.4 944.0 2533.6 933.3 2552.4 925.1 2577.6 908.9 2592.8 895.2 2594.0 892.5 2602.1 884.5 2608.9 875.5 2612.2 868.8 2617.7 861.5 2631.4 831.5 2639.6 803.5 2643.8 778.6 2645.5 777.0 2758.5 777.0 2759.9 778.6 2758.6 791.7 2750.4 829.3 2731.2 883.5 2719.2 907.4 2703.8 931.6 2690.2 947.7 2689.0 950.5 2682.0 957.5 2680.8 960.2 2668.2 972.8 2665.5 974.0 2657.6 982.0 2631.4 1001.0 2586.4 1023.3 2538.4 1037.2 2486.4 1044.0 2410.3 1042.8 2373.7 1037.2 2349.5 1031.4 2317.6 1020.5 2288.4 1006.7 2262.3 990.8 2247.2 978.1 2244.5 977.0 2238.5 971.0 2235.7 969.7 2217.3 951.3 2216.0 948.5 2209.0 941.5 2207.9 938.8 2195.0 923.4 2179.2 898.5 2164.5 868.5 2150.5 830.5 2141.4 794.5 2134.2 748.6 2132.1 720.8 2132.0 667.7 2133.9 639.8 2139.8 596.5 2146.7 564.6 2157.6 528.6 2168.7 500.6 2182.9 472.6 2206.1 437.4 2220.8 421.3 2223.2 416.9 2257.8 385.1 2292.5 362.0 2316.5 349.8 2351.5 336.5 2377.5 329.8 2411.5 324.2ZM1080.6 326.0 1126.7 327.2 1167.6 333.5 1202.4 343.5 1239.5 360.3 1266.7 377.1 1281.8 389.9 1284.5 391.0 1291.5 398.0 1294.1 399.2 1321.0 427.4 1347.7 465.4 1366.3 501.6 1381.4 542.5 1393.6 592.5 1400.1 639.5 1402.0 669.5 1399.8 742.6 1393.2 790.4 1380.4 842.4 1363.2 886.4 1337.0 931.3 1327.0 944.7 1321.0 950.5 1319.9 953.0 1313.1 959.0 1310.8 963.0 1285.2 986.0 1247.5 1010.7 1210.5 1027.4 1171.5 1038.6 1127.6 1044.8 1076.6 1046.0 1025.6 1040.2 979.6 1027.5 940.4 1009.6 907.4 987.0 882.0 961.1 859.2 927.5 848.8 906.5 842.5 888.5 841.2 887.0 839.8 887.0 839.0 888.5 839.0 1274.5 837.4 1276.0 790.6 1276.0 789.0 1274.5 789.0 343.5 790.6 342.0 837.4 342.0 839.0 343.5 839.0 498.5 839.5 500.0 840.5 500.0 856.8 462.6 877.0 429.9 891.0 414.1 893.1 409.9 908.9 394.1 911.5 393.0 918.5 386.0 921.2 384.9 933.8 374.1 976.7 349.8 1007.5 337.6 1040.7 329.8ZM5388.8 359.0 5390.2 359.0 5391.8 360.5 5396.2 369.5 5396.8 371.8 5396.2 373.2 5394.5 374.6 5373.5 383.4 5357.3 392.2 5351.6 393.7 5279.4 429.3 5273.6 430.7 5201.4 466.3 5195.7 467.8 5182.3 475.2 5176.6 476.7 5104.4 512.3 5098.5 513.8 5064.5 531.2 5062.5 531.8 5060.2 529.2 5055.8 518.8 5056.4 516.4ZM1066.4 371.2 1041.5 374.4 1014.5 380.6 990.5 389.4 969.8 400.1 934.8 425.2 913.2 446.8 893.0 473.6 869.4 518.7 859.6 545.5 851.7 575.6 846.8 600.6 841.2 648.4 841.2 728.6 849.8 795.4 864.6 850.5 874.9 874.6 889.1 900.5 906.0 924.1 925.0 943.9 929.2 946.1 943.6 959.0 965.4 973.0 1006.5 990.4 1055.5 1000.1 1088.5 1001.9 1115.3 1001.1 1163.6 993.5 1188.4 985.4 1213.6 973.6 1217.8 970.1 1228.2 964.9 1233.4 960.1 1247.6 950.9 1253.5 945.0 1256.2 943.9 1276.8 923.1 1279.2 918.7 1292.9 902.6 1306.7 880.6 1319.3 855.4 1338.3 798.3 1345.2 764.5 1349.8 724.5 1349.8 652.2 1346.7 623.4 1339.6 584.5 1326.4 539.5 1317.8 517.8 1302.1 487.7 1274.9 449.3 1254.3 428.3 1251.5 427.0 1245.7 421.0 1232.3 411.0 1211.3 397.8 1179.5 383.6 1155.5 376.8 1128.5 372.2ZM5926.6 378.1 5948.4 378.9 5950.0 379.5 5950.0 380.5 5948.6 382.2 5934.4 394.8 5933.0 394.0 5933.0 390.0 5931.0 388.5 5923.4 390.6 5894.6 402.4 5879.6 406.5 5595.4 510.5 5594.7 512.3 5696.3 708.7 5698.4 709.5 5964.6 613.5 5969.5 610.0 5967.0 608.8 5965.0 606.2 5965.5 605.1 5986.5 605.9 5986.9 607.1 5972.1 621.9 5970.8 620.8 5970.2 616.2 5968.6 614.5 5702.4 711.5 5700.8 712.8 5700.2 714.2 5701.0 717.0 5707.0 729.0 5709.5 731.8 5710.0 734.2 5708.6 735.6 5700.4 739.4 5698.2 741.5 5695.0 739.8 5693.2 737.3 5685.8 720.7 5684.0 719.0 5682.0 719.0 5669.6 724.5 5581.4 755.5 5580.7 757.4 5699.3 982.6 5700.0 985.5 5698.2 986.9 5687.8 992.1 5685.3 991.7 5566.7 764.3 5565.2 762.8 5563.8 762.2 5545.5 769.5 5542.5 769.2 5542.0 766.8 5543.7 765.5 5560.3 760.5 5562.2 759.2 5562.5 756.8 5560.3 754.5 5553.7 739.5 5550.3 735.5 5543.7 720.5 5541.5 718.2 5540.5 714.8 5538.2 712.2 5533.8 701.8 5531.0 698.2 5530.5 695.8 5528.2 693.6 5502.0 642.2 5502.0 640.8 5503.0 639.8 5505.0 639.2 5508.5 636.2 5511.5 634.8 5514.0 634.2 5516.0 634.8 5517.7 636.3 5577.3 751.7 5579.4 752.5 5680.6 716.5 5681.3 714.7 5579.7 518.3 5577.4 517.6 5547.6 528.4 5543.0 528.2 5542.5 527.2 5543.5 525.8 5545.6 524.5 5573.4 515.5 5575.2 514.2 5575.8 512.8 5575.3 510.6 5512.7 391.4 5513.5 389.1 5522.5 383.9 5524.8 383.2 5526.2 383.8 5527.7 385.4 5589.3 504.6 5593.0 507.5 5595.4 507.5 5922.6 388.5 5931.0 384.5 5931.0 383.5 5928.0 381.8 5926.0 379.2ZM1746.1 391.2 1726.9 393.8 1706.7 398.6 1667.4 415.4 1638.5 435.0 1611.1 461.2 1586.3 495.4 1566.5 534.5 1550.7 581.5 1543.8 612.6 1541.2 634.4 1542.5 636.0 1985.5 636.0 1986.8 634.4 1981.6 584.2 1976.5 562.5 1967.5 535.5 1947.1 493.7 1930.9 470.3 1917.2 456.2 1914.7 451.8 1896.3 435.2 1876.2 420.9 1837.4 401.7 1795.5 392.0ZM5464.0 402.0 5476.0 402.0 5478.0 403.5 5478.0 479.5 5476.0 481.0 5464.0 481.0 5462.0 479.5 5462.0 403.5ZM5464.0 646.0 5476.0 646.0 5478.0 647.5 5478.0 722.5 5476.0 724.0 5464.0 724.0 5462.0 722.5 5462.0 647.5ZM4134.8 682.8 4129.6 688.9 4118.4 695.4 4072.2 706.8 4053.8 714.2 4049.6 717.6 4041.4 721.4 4027.2 733.0 4025.2 735.3 4013.8 753.7 4012.7 756.5 4005.9 786.7 4005.1 810.3 4007.8 835.4 4013.8 853.3 4022.2 866.7 4032.5 876.9 4041.5 882.1 4054.9 886.1 4066.1 886.9 4086.3 884.2 4094.0 881.8 4106.5 874.9 4115.9 866.1 4127.1 847.6 4135.2 820.5 4139.0 789.5 4139.0 682.5 4138.2 681.0 4136.8 681.0ZM5975.6 706.1 5997.4 706.9 5997.9 708.1 5982.1 722.9 5980.8 723.5 5980.2 722.5 5981.5 715.8 5980.5 715.2 5978.2 715.8 5957.6 724.5 5822.4 772.5 5821.2 772.0 5821.8 770.0 5823.5 768.5 5977.5 713.5 5979.8 711.5 5975.5 707.2ZM5743.0 890.0 5755.0 890.0 5757.0 891.5 5757.0 966.5 5755.0 968.0 5743.0 968.0 5741.0 966.5 5741.0 891.5ZM5975.6 949.1 5997.4 949.9 5999.0 950.5 5998.2 952.2 5994.8 954.2 5982.2 966.8 5980.8 967.5 5980.2 966.5 5981.5 959.0 5978.6 959.5 5822.4 1016.5 5821.0 1016.0 5821.0 1014.0 5822.5 1012.6 5834.8 1009.2 5855.5 1000.5 5976.5 957.5 5979.5 955.5 5974.0 950.5 5974.0 949.5ZM5743.5 975.0 5752.5 975.0 5768.0 977.6 5771.6 978.8 5793.4 990.2 5796.1 992.2 5812.8 1011.5 5818.4 1023.7 5823.0 1044.1 5823.0 1056.9 5820.4 1071.2 5809.7 1093.6 5807.5 1096.6 5798.5 1106.4 5788.2 1114.1 5770.4 1122.4 5757.2 1125.0 5738.8 1125.0 5729.5 1123.5 5725.3 1122.2 5708.7 1114.8 5701.0 1109.5 5698.0 1106.8 5684.0 1090.2 5681.8 1086.5 5677.6 1077.4 5673.0 1058.4 5673.0 1042.6 5675.6 1028.8 5680.4 1016.5 5688.0 1004.5 5706.8 987.1 5709.5 985.3 5724.5 978.7ZM3300.5 1153.0 3331.0 1153.5 3343.0 1156.5 3359.0 1164.0 3362.2 1166.2 3378.8 1183.8 3381.2 1187.5 3385.5 1197.1 3388.5 1209.9 3386.9 1212.0 3374.1 1212.0 3371.5 1209.5 3369.2 1200.6 3362.5 1189.5 3350.6 1178.2 3333.1 1169.6 3321.9 1167.4 3307.4 1167.2 3294.5 1169.7 3279.5 1176.3 3276.8 1178.2 3264.2 1189.8 3260.0 1195.5 3253.5 1208.8 3248.5 1227.2 3248.0 1230.7 3248.4 1264.6 3251.6 1277.4 3257.4 1291.6 3265.2 1303.2 3272.8 1310.8 3288.7 1320.2 3291.6 1321.3 3310.6 1324.9 3326.4 1324.1 3336.2 1321.8 3340.3 1320.2 3353.7 1312.8 3356.2 1310.6 3367.8 1296.4 3369.4 1293.6 3375.6 1273.4 3376.0 1260.6 3374.5 1259.0 3316.5 1259.0 3315.0 1257.2 3315.0 1246.8 3316.6 1245.0 3390.4 1245.0 3392.0 1246.5 3391.0 1334.5 3389.5 1336.0 3380.5 1336.0 3378.9 1334.4 3377.1 1305.6 3376.1 1305.4 3370.9 1313.6 3359.5 1325.5 3347.5 1333.1 3329.5 1338.6 3301.8 1339.0 3282.6 1334.4 3267.9 1327.0 3264.6 1324.7 3250.4 1311.3 3242.2 1299.2 3233.7 1278.2 3230.1 1257.3 3230.9 1226.7 3237.6 1202.5 3248.2 1183.7 3263.3 1168.2 3281.7 1157.8ZM3792.5 1153.0 3822.4 1153.4 3842.6 1159.6 3845.8 1161.1 3856.2 1167.9 3868.5 1179.5 3871.0 1182.7 3882.6 1202.9 3886.4 1214.1 3889.6 1230.9 3889.1 1264.3 3881.5 1291.3 3879.9 1294.9 3873.1 1306.1 3866.0 1314.0 3864.5 1317.0 3867.4 1320.9 3886.6 1334.1 3888.0 1335.8 3888.0 1337.2 3881.0 1345.5 3881.0 1346.5 3877.2 1345.5 3874.6 1343.9 3853.2 1327.0 3849.2 1328.0 3835.0 1335.5 3819.5 1339.0 3792.5 1339.0 3773.6 1334.4 3762.4 1328.9 3749.5 1319.4 3738.2 1306.5 3729.8 1291.5 3723.8 1272.4 3721.1 1253.3 3722.4 1226.4 3729.8 1200.5 3740.1 1182.8 3753.7 1169.0 3773.6 1157.6ZM950.5 1156.0 1088.5 1156.0 1090.0 1157.9 1090.0 1169.1 1088.5 1171.0 1029.5 1171.0 1028.0 1172.5 1027.0 1334.5 1025.0 1336.0 1013.0 1336.0 1011.0 1334.5 1011.0 1172.5 1009.4 1171.0 949.6 1171.0 948.1 1169.1 948.9 1157.9ZM1106.0 1156.0 1118.0 1156.0 1120.0 1157.5 1120.0 1226.5 1121.0 1226.0 1125.1 1218.9 1134.4 1210.2 1142.6 1205.8 1156.2 1202.4 1174.5 1202.9 1183.5 1205.2 1188.2 1207.2 1196.0 1212.1 1202.0 1218.9 1203.5 1221.7 1209.0 1241.5 1209.0 1334.5 1207.0 1335.9 1195.0 1335.1 1193.0 1333.5 1192.0 1240.5 1191.4 1237.5 1187.6 1228.5 1185.9 1226.0 1179.1 1220.0 1171.2 1216.8 1166.9 1216.0 1150.2 1216.5 1142.8 1219.2 1134.9 1224.2 1126.0 1235.0 1122.6 1242.6 1120.0 1255.6 1120.0 1334.4 1118.0 1336.0 1106.0 1336.0 1104.0 1334.5 1104.0 1157.5ZM1495.7 1156.1 1512.3 1156.9 1514.5 1158.4 1545.5 1240.6 1562.4 1280.6 1564.7 1289.4 1571.3 1303.6 1573.6 1312.4 1582.4 1331.6 1582.2 1335.2 1580.5 1335.9 1565.5 1335.1 1563.4 1333.5 1543.6 1281.5 1541.4 1280.0 1463.6 1280.0 1461.4 1281.5 1441.6 1333.5 1439.4 1335.1 1423.6 1335.9 1422.6 1334.6 1493.4 1157.4ZM2109.0 1156.0 2121.0 1156.0 2123.0 1157.6 2123.0 1180.4 2121.0 1182.0 2109.0 1182.0 2107.0 1180.4 2107.0 1157.6ZM2360.9 1156.0 2372.1 1156.0 2374.0 1157.6 2374.0 1180.4 2372.0 1182.0 2360.0 1182.0 2358.1 1180.4 2358.9 1157.6ZM2783.6 1156.1 2799.4 1156.9 2801.0 1158.8 2801.0 1169.2 2799.4 1170.9 2783.6 1170.1 2780.2 1171.2 2776.8 1173.8 2774.2 1177.2 2772.0 1185.8 2772.0 1204.2 2773.6 1206.0 2795.4 1206.0 2797.1 1207.6 2797.9 1217.4 2796.4 1219.1 2773.6 1219.9 2772.0 1221.5 2772.0 1333.5 2770.1 1335.1 2758.9 1335.9 2757.0 1334.5 2756.0 1221.5 2754.2 1219.9 2735.8 1219.1 2734.0 1217.4 2734.0 1207.6 2735.8 1206.0 2754.2 1206.0 2756.0 1204.2 2756.5 1183.0 2759.5 1171.0 2761.8 1167.0 2765.2 1163.0 2768.9 1160.4ZM3106.1 1156.0 3118.9 1156.0 3121.0 1157.5 3121.0 1319.5 3122.6 1321.0 3219.4 1321.0 3221.0 1322.9 3221.0 1334.1 3219.5 1336.0 3105.5 1335.0 3104.0 1333.5 3104.0 1157.5ZM3426.5 1156.0 3518.6 1157.4 3528.4 1159.6 3537.5 1163.8 3541.2 1166.1 3548.8 1172.9 3551.2 1176.2 3555.4 1184.8 3557.6 1195.2 3557.8 1198.6 3554.2 1217.4 3549.8 1225.6 3543.8 1232.2 3535.2 1237.8 3528.5 1239.8 3529.8 1240.8 3539.5 1243.9 3548.5 1249.1 3551.1 1251.4 3557.9 1259.6 3559.6 1262.8 3563.4 1273.2 3564.0 1276.7 3564.0 1293.3 3561.8 1303.2 3557.2 1312.8 3554.9 1316.1 3548.1 1322.9 3545.3 1324.8 3528.7 1332.2 3508.7 1335.8 3425.6 1335.0 3424.0 1333.5 3425.0 1157.5ZM3573.5 1156.0 3712.5 1157.0 3714.0 1158.8 3714.0 1169.2 3712.4 1171.0 3652.6 1171.0 3651.0 1172.5 3651.0 1334.5 3648.9 1335.9 3636.1 1335.1 3634.0 1333.5 3634.0 1172.5 3632.4 1171.0 3573.6 1171.0 3572.0 1169.1 3572.0 1157.9ZM4137.6 1156.1 4160.4 1156.9 4162.5 1158.4 4219.5 1310.6 4221.2 1309.8 4223.8 1305.2 4226.6 1295.6 4257.4 1220.4 4267.5 1191.5 4271.5 1184.5 4280.5 1158.5 4282.6 1156.9 4305.4 1156.1 4307.0 1157.5 4306.0 1334.5 4304.0 1335.9 4292.0 1335.1 4290.0 1333.5 4290.0 1183.5 4289.4 1183.4 4228.6 1334.6 4226.1 1336.0 4214.9 1336.0 4212.2 1334.8 4209.5 1329.6 4155.5 1184.4 4153.5 1182.2 4153.0 1183.5 4153.0 1334.5 4150.9 1335.9 4138.1 1335.1 4136.0 1333.5 4136.0 1157.5ZM4546.0 1156.1 4558.0 1156.9 4560.0 1158.6 4560.0 1225.4 4561.2 1224.8 4566.5 1216.5 4573.5 1210.5 4583.0 1205.5 4598.5 1202.1 4613.5 1202.9 4627.8 1207.0 4634.2 1211.4 4641.8 1219.6 4643.8 1222.8 4646.4 1230.1 4649.0 1246.5 4648.0 1334.5 4646.1 1336.0 4634.9 1336.0 4633.0 1334.4 4633.0 1254.6 4631.2 1239.0 4630.0 1234.8 4628.0 1230.2 4623.2 1223.5 4620.4 1221.2 4610.6 1216.8 4607.5 1216.0 4592.5 1216.0 4584.2 1218.2 4575.2 1223.5 4571.2 1227.2 4565.2 1236.0 4560.0 1251.5 4560.0 1333.5 4557.9 1335.0 4545.1 1335.0 4543.0 1333.5 4544.0 1157.5ZM5224.0 1156.1 5236.0 1156.9 5237.9 1158.6 5237.1 1180.4 5235.1 1182.0 5223.9 1182.0 5222.0 1180.4 5222.0 1157.6ZM5400.9 1156.0 5412.1 1156.0 5414.0 1157.6 5414.0 1180.4 5412.0 1182.0 5400.0 1182.0 5398.1 1180.4 5398.9 1157.6ZM3798.0 1167.4 3782.4 1170.8 3769.2 1177.2 3762.9 1182.2 3750.2 1197.5 3744.6 1209.5 3740.4 1224.5 3739.1 1258.3 3739.4 1261.5 3745.8 1285.3 3753.2 1298.7 3762.8 1309.6 3765.7 1311.9 3782.3 1321.1 3785.7 1322.2 3809.3 1324.8 3813.0 1324.6 3828.4 1321.4 3836.6 1317.6 3837.8 1316.2 3835.7 1313.1 3817.3 1299.9 3816.0 1298.2 3817.0 1294.9 3823.0 1288.1 3825.3 1288.0 3848.7 1306.0 3852.0 1305.0 3859.0 1297.2 3865.0 1286.8 3870.4 1270.1 3871.1 1266.5 3872.7 1235.5 3865.2 1205.7 3857.8 1192.3 3846.5 1180.5 3843.6 1178.2 3829.4 1170.8 3826.0 1169.6 3810.5 1167.0ZM2295.0 1167.0 2307.0 1167.0 2309.0 1168.6 2309.0 1204.4 2310.6 1206.0 2333.4 1206.0 2335.0 1207.6 2335.0 1217.4 2333.4 1219.0 2310.6 1219.0 2309.0 1220.6 2309.0 1312.4 2309.5 1315.5 2310.5 1318.5 2314.0 1322.2 2316.7 1323.0 2333.3 1323.0 2335.0 1324.6 2335.0 1334.4 2333.1 1336.1 2313.9 1336.9 2310.0 1336.5 2302.5 1334.0 2299.5 1332.0 2297.4 1329.5 2293.6 1320.5 2293.0 1317.5 2293.0 1221.5 2291.1 1219.9 2271.9 1219.1 2270.1 1217.4 2270.9 1207.6 2272.8 1206.0 2291.2 1206.0 2293.0 1204.4 2293.0 1168.6ZM4480.9 1167.0 4492.1 1167.0 4494.0 1168.6 4494.0 1204.4 4495.7 1206.1 4519.3 1206.9 4521.0 1208.5 4521.0 1217.5 4519.3 1219.1 4495.7 1219.9 4494.0 1221.5 4495.0 1314.5 4496.5 1317.8 4499.5 1321.2 4502.7 1323.0 4519.3 1323.0 4521.0 1324.6 4521.0 1334.4 4519.5 1336.1 4498.5 1336.9 4491.8 1335.5 4484.0 1330.5 4481.2 1327.0 4479.8 1323.0 4479.0 1319.5 4478.0 1220.5 4476.2 1219.0 4457.8 1219.0 4456.0 1217.4 4456.0 1207.6 4457.8 1206.0 4476.2 1206.0 4478.0 1204.4 4479.0 1168.6ZM5158.0 1167.0 5170.0 1167.0 5172.0 1168.6 5172.0 1204.4 5173.6 1206.0 5196.4 1206.0 5198.0 1207.6 5198.0 1217.4 5196.4 1219.1 5173.6 1219.9 5172.0 1221.5 5172.0 1310.5 5172.8 1314.2 5174.2 1318.8 5175.8 1321.5 5177.2 1322.5 5196.3 1323.0 5198.0 1324.6 5198.0 1334.4 5197.0 1336.2 5195.0 1336.8 5171.5 1336.1 5168.6 1335.0 5160.4 1329.0 5158.2 1325.5 5156.0 1316.5 5156.0 1221.5 5154.1 1219.9 5134.9 1219.1 5133.1 1217.4 5133.9 1207.6 5135.8 1206.0 5154.2 1206.0 5156.0 1204.4 5156.0 1168.6ZM3442.0 1172.6 3442.0 1233.4 3443.6 1235.0 3511.4 1234.0 3514.5 1233.5 3523.5 1230.5 3529.5 1227.0 3532.8 1223.8 3538.5 1215.5 3539.9 1209.4 3539.1 1193.6 3538.0 1190.0 3533.6 1182.9 3525.4 1176.1 3521.9 1174.5 3505.4 1171.0 3443.6 1171.0ZM1502.4 1176.4 1467.6 1262.6 1467.8 1265.5 1469.6 1266.0 1535.4 1265.0 1536.5 1263.6 1503.5 1176.4ZM1287.8 1202.2 1305.2 1203.8 1308.5 1204.8 1323.5 1212.2 1326.1 1214.2 1338.6 1229.4 1343.5 1241.0 1347.1 1256.7 1347.9 1273.3 1346.4 1275.0 1249.6 1275.0 1248.2 1276.8 1250.8 1294.2 1257.1 1308.2 1259.5 1311.4 1268.5 1319.6 1271.6 1321.6 1281.4 1325.4 1285.0 1326.0 1297.0 1326.0 1301.0 1325.2 1313.0 1320.8 1316.2 1318.6 1323.8 1310.4 1325.8 1307.0 1330.2 1295.0 1333.0 1293.0 1345.0 1293.0 1346.6 1294.6 1343.2 1307.4 1334.8 1321.6 1332.5 1324.2 1320.5 1333.5 1302.4 1339.0 1279.6 1339.0 1275.2 1338.2 1265.6 1335.2 1257.4 1330.8 1244.1 1317.2 1242.1 1314.1 1235.6 1299.4 1233.0 1286.3 1233.0 1256.7 1233.6 1253.4 1243.0 1227.5 1247.2 1221.9 1258.8 1211.1 1261.8 1209.2 1275.5 1203.8ZM1639.8 1202.2 1658.2 1203.8 1662.0 1205.0 1677.0 1213.1 1684.5 1222.4 1690.0 1239.5 1690.0 1242.5 1688.0 1244.0 1676.0 1244.0 1673.8 1241.8 1672.0 1233.0 1670.0 1229.0 1667.0 1225.2 1659.5 1219.5 1650.5 1216.5 1647.2 1216.1 1628.8 1216.9 1624.5 1218.2 1619.5 1220.8 1615.5 1224.0 1612.5 1228.0 1610.9 1231.5 1610.1 1240.5 1610.5 1243.2 1613.2 1248.2 1618.9 1252.9 1633.6 1259.3 1668.4 1266.7 1671.8 1268.0 1682.2 1274.0 1685.1 1276.6 1691.9 1286.4 1693.2 1290.1 1694.8 1302.9 1694.2 1307.0 1689.8 1319.0 1687.5 1322.4 1678.5 1330.6 1675.2 1332.6 1654.3 1339.0 1630.7 1339.0 1627.2 1338.3 1609.8 1331.7 1606.9 1329.8 1596.1 1318.2 1594.5 1315.2 1589.5 1296.8 1591.1 1294.9 1603.9 1294.1 1606.2 1296.8 1606.8 1302.2 1608.2 1307.2 1613.8 1315.5 1620.4 1320.6 1628.6 1324.4 1631.7 1325.0 1655.3 1325.0 1659.5 1324.0 1668.1 1320.0 1674.9 1314.0 1676.4 1311.2 1678.6 1300.8 1678.2 1297.0 1676.8 1293.0 1671.5 1286.5 1668.1 1284.2 1656.9 1279.8 1631.4 1274.5 1615.6 1269.5 1606.5 1264.5 1603.0 1261.8 1597.0 1254.2 1595.5 1251.2 1594.0 1244.2 1594.0 1233.8 1596.2 1225.2 1601.5 1217.0 1604.9 1213.9 1619.7 1205.7ZM1761.1 1202.1 1777.5 1203.6 1792.5 1209.4 1795.5 1211.2 1800.9 1216.2 1806.1 1223.8 1807.5 1226.9 1811.0 1241.0 1811.0 1243.0 1809.0 1244.0 1797.0 1244.0 1794.5 1241.2 1793.5 1235.8 1791.8 1231.0 1786.8 1224.0 1781.4 1220.4 1768.5 1216.0 1753.5 1216.0 1743.5 1218.8 1737.2 1223.0 1733.8 1227.0 1731.9 1230.8 1731.1 1241.2 1732.0 1244.2 1738.0 1251.8 1740.8 1253.8 1754.7 1259.4 1791.3 1267.6 1795.2 1269.2 1804.0 1275.0 1808.0 1279.0 1813.0 1287.0 1814.1 1290.7 1814.9 1307.3 1814.2 1310.6 1809.8 1320.4 1807.8 1323.1 1800.2 1329.9 1791.5 1334.8 1787.4 1336.4 1774.4 1339.0 1751.6 1339.0 1748.3 1338.4 1731.7 1332.6 1728.5 1330.6 1719.5 1322.4 1716.8 1318.5 1712.6 1309.4 1710.0 1297.0 1710.0 1295.0 1712.0 1294.0 1724.0 1294.0 1726.2 1296.0 1727.6 1303.4 1731.4 1311.6 1733.1 1314.0 1739.9 1320.0 1742.9 1321.6 1754.1 1325.4 1758.0 1326.0 1770.0 1326.0 1782.4 1323.2 1790.6 1318.8 1793.2 1316.5 1797.5 1310.8 1799.0 1304.2 1799.0 1298.8 1798.1 1294.8 1792.9 1287.2 1790.0 1285.1 1774.5 1278.8 1756.6 1275.6 1736.4 1269.4 1728.2 1265.2 1724.2 1262.2 1720.8 1258.8 1716.8 1252.5 1715.9 1249.2 1715.1 1231.8 1715.8 1228.5 1720.2 1219.5 1722.6 1216.8 1732.4 1209.2 1735.6 1207.6 1757.4 1202.4ZM1889.8 1202.2 1908.2 1203.8 1911.7 1204.8 1928.3 1213.2 1931.2 1215.3 1942.8 1228.7 1944.9 1232.0 1950.1 1244.0 1953.6 1259.1 1952.5 1288.9 1949.5 1300.1 1945.2 1309.5 1942.8 1313.3 1931.2 1326.7 1928.2 1329.0 1917.8 1335.0 1913.2 1336.8 1903.5 1339.0 1879.2 1338.5 1868.8 1335.5 1860.2 1331.2 1856.5 1328.6 1847.5 1320.4 1839.9 1309.4 1832.0 1284.5 1832.5 1254.1 1836.8 1239.5 1843.4 1227.4 1851.6 1217.6 1861.8 1209.9 1874.0 1204.6ZM2028.8 1202.2 2047.2 1203.8 2050.7 1204.8 2067.3 1213.2 2070.1 1215.4 2078.5 1226.4 2084.0 1243.2 2084.0 1245.8 2082.0 1247.0 2070.0 1247.0 2067.5 1245.6 2062.5 1231.4 2060.8 1228.8 2053.2 1221.2 2049.2 1219.0 2039.5 1216.0 2024.5 1216.0 2021.0 1216.9 2009.0 1222.1 2005.9 1224.1 1999.1 1230.9 1991.0 1245.1 1989.6 1248.5 1987.1 1260.8 1987.9 1286.2 1988.6 1289.8 1992.4 1300.2 1996.8 1308.0 1999.3 1311.1 2012.7 1321.9 2016.5 1323.8 2025.8 1326.0 2036.2 1326.0 2043.2 1324.5 2051.8 1320.2 2055.8 1317.2 2061.8 1310.6 2066.2 1302.4 2068.8 1290.5 2071.0 1289.0 2083.0 1289.0 2084.7 1290.6 2081.3 1306.4 2073.1 1321.1 2070.5 1324.2 2058.6 1333.5 2044.4 1338.5 2041.1 1339.0 2018.2 1338.5 2007.8 1335.5 1995.6 1328.8 1987.4 1321.2 1979.0 1309.5 1977.6 1306.6 1971.4 1286.4 1971.0 1283.3 1972.0 1253.7 1972.8 1249.2 1976.0 1239.1 1984.1 1224.8 1993.2 1215.1 2004.2 1208.0 2013.0 1204.6ZM2200.7 1202.1 2217.3 1202.9 2232.0 1207.0 2240.0 1212.0 2246.8 1219.9 2252.0 1234.6 2252.0 1312.4 2254.2 1319.2 2256.5 1321.1 2265.5 1321.9 2267.0 1323.6 2267.0 1333.4 2264.9 1335.1 2252.1 1335.9 2248.0 1335.0 2244.0 1333.0 2241.0 1330.0 2239.0 1326.0 2237.5 1314.0 2236.5 1314.0 2234.5 1316.5 2228.9 1325.0 2222.1 1331.0 2204.5 1338.4 2201.4 1339.0 2179.6 1339.0 2166.6 1335.5 2160.5 1332.0 2157.9 1329.6 2151.1 1321.4 2149.2 1317.8 2147.0 1309.4 2147.0 1293.6 2147.6 1290.5 2151.4 1281.5 2156.5 1275.5 2159.6 1273.1 2169.4 1267.9 2184.1 1263.5 2226.2 1258.5 2231.2 1255.8 2233.8 1253.2 2235.1 1250.5 2235.9 1235.5 2233.8 1228.8 2231.2 1225.2 2224.5 1219.5 2212.2 1216.0 2194.8 1216.0 2187.8 1217.5 2183.8 1219.2 2179.2 1221.8 2173.2 1227.5 2171.5 1231.1 2168.5 1243.9 2166.0 1246.0 2154.0 1246.0 2152.4 1243.9 2154.6 1231.1 2155.8 1227.8 2164.2 1215.2 2166.8 1213.0 2180.7 1205.7ZM2455.8 1202.2 2474.2 1203.8 2477.7 1204.8 2494.3 1213.2 2497.2 1215.2 2507.5 1226.2 2512.8 1235.0 2517.2 1247.0 2520.0 1261.8 2520.0 1280.2 2518.5 1290.2 2517.2 1294.8 2509.8 1312.2 2501.0 1322.5 2500.5 1324.0 2499.5 1324.0 2490.2 1331.7 2472.8 1338.3 2469.2 1338.9 2443.8 1338.1 2439.8 1337.2 2431.2 1333.9 2420.8 1327.1 2417.6 1324.4 2409.4 1314.6 2406.8 1310.5 2402.6 1301.4 2398.1 1282.4 2398.9 1253.6 2399.6 1250.6 2407.4 1230.4 2409.2 1227.5 2416.8 1218.5 2429.4 1209.1 2432.9 1207.5 2452.1 1202.5ZM2598.5 1202.1 2613.5 1202.9 2622.5 1205.2 2627.2 1207.2 2635.2 1212.6 2642.8 1222.4 2644.5 1226.1 2648.0 1242.6 2648.0 1334.4 2646.0 1335.9 2634.0 1335.1 2632.0 1333.5 2631.0 1240.5 2626.6 1228.5 2624.9 1226.0 2618.1 1220.0 2614.8 1218.2 2605.9 1216.0 2593.1 1216.0 2585.8 1217.5 2577.2 1221.8 2573.9 1224.2 2567.1 1231.8 2563.0 1239.0 2561.6 1242.6 2559.0 1255.6 2559.0 1334.4 2557.0 1336.0 2545.0 1336.0 2543.0 1334.5 2543.0 1207.5 2545.0 1206.0 2557.0 1206.0 2559.1 1207.8 2559.9 1226.2 2560.8 1226.0 2564.1 1218.9 2573.4 1210.2 2584.8 1204.6ZM2864.6 1202.2 2886.4 1204.8 2889.5 1205.8 2904.5 1214.2 2907.4 1216.5 2915.6 1225.5 2922.2 1236.6 2928.6 1261.4 2927.1 1290.2 2926.3 1293.7 2919.7 1310.3 2917.8 1313.3 2906.2 1326.7 2903.2 1329.0 2892.8 1335.0 2888.2 1336.8 2878.4 1339.0 2853.4 1338.5 2843.6 1335.5 2831.5 1328.6 2822.5 1320.4 2816.5 1312.2 2814.5 1308.5 2807.0 1284.5 2807.0 1257.5 2807.5 1254.5 2815.9 1230.8 2823.2 1221.0 2837.4 1209.4 2849.0 1204.6ZM4386.7 1202.1 4403.3 1202.9 4413.2 1205.2 4418.2 1207.2 4426.1 1212.4 4432.9 1220.6 4434.5 1223.8 4438.0 1237.6 4438.0 1315.4 4439.2 1318.2 4441.8 1320.8 4445.2 1322.0 4449.8 1322.0 4452.0 1323.6 4452.0 1333.4 4450.0 1335.1 4438.0 1335.9 4434.2 1335.2 4430.8 1333.8 4427.8 1331.2 4423.9 1324.5 4423.1 1315.5 4421.8 1315.4 4409.2 1329.6 4406.4 1331.7 4390.6 1338.3 4387.5 1339.0 4360.5 1338.0 4356.5 1337.0 4347.6 1332.8 4339.4 1325.2 4337.4 1322.5 4333.6 1313.5 4332.1 1298.9 4332.6 1295.0 4336.4 1283.0 4339.0 1279.0 4343.0 1275.0 4351.8 1269.2 4365.4 1264.5 4409.4 1259.2 4414.8 1257.5 4419.8 1252.5 4421.1 1249.1 4421.9 1237.9 4420.5 1230.8 4418.2 1227.0 4414.8 1223.0 4411.2 1220.4 4397.3 1216.0 4380.7 1216.0 4370.0 1219.0 4366.0 1221.0 4358.8 1228.0 4356.6 1232.0 4354.4 1244.0 4352.0 1246.0 4340.0 1246.0 4338.2 1244.5 4340.8 1229.5 4341.9 1226.8 4351.1 1214.2 4353.5 1212.1 4365.8 1205.7ZM4726.8 1202.2 4745.2 1203.8 4749.0 1205.0 4761.0 1211.0 4764.2 1213.4 4776.8 1227.6 4778.8 1230.9 4783.2 1242.1 4786.6 1257.1 4787.0 1273.0 4785.5 1275.0 4689.5 1275.0 4688.2 1276.6 4689.8 1292.4 4696.1 1307.1 4698.2 1310.1 4709.8 1320.9 4712.5 1322.5 4721.5 1325.5 4736.1 1326.0 4751.1 1321.6 4754.4 1319.6 4762.6 1311.4 4764.6 1308.6 4770.4 1294.4 4772.9 1293.0 4784.1 1293.0 4785.6 1294.8 4783.4 1305.2 4782.0 1308.8 4776.0 1319.2 4773.5 1322.4 4764.5 1330.6 4761.3 1332.6 4744.7 1338.4 4741.5 1339.0 4714.5 1338.0 4710.8 1337.2 4702.6 1334.1 4694.4 1328.9 4685.1 1319.6 4679.9 1311.4 4672.4 1286.6 4672.1 1283.3 4672.9 1253.7 4673.6 1250.5 4681.4 1229.5 4685.0 1223.5 4699.8 1210.1 4702.5 1208.4 4714.5 1203.8ZM4862.9 1202.1 4877.6 1203.6 4890.1 1209.0 4896.9 1215.0 4902.5 1226.0 4903.5 1226.0 4909.0 1217.0 4916.5 1210.3 4931.5 1203.7 4934.5 1203.0 4955.5 1203.0 4958.6 1203.6 4968.4 1207.4 4976.0 1213.2 4979.2 1217.0 4983.5 1225.1 4987.0 1241.5 4986.0 1334.5 4984.1 1336.0 4972.9 1336.0 4971.0 1334.4 4970.0 1237.6 4969.0 1233.5 4967.0 1228.5 4964.5 1224.5 4961.5 1221.5 4957.5 1219.0 4948.2 1216.1 4929.8 1216.9 4925.8 1218.2 4921.2 1220.8 4917.8 1223.8 4910.2 1234.2 4908.7 1237.8 4905.0 1258.5 4905.0 1334.5 4903.0 1335.9 4891.0 1335.1 4889.0 1333.5 4889.0 1239.5 4886.8 1230.5 4884.2 1226.0 4880.8 1222.0 4876.8 1219.0 4868.0 1216.0 4856.0 1216.0 4852.4 1216.6 4842.6 1220.4 4839.9 1222.1 4833.1 1228.9 4831.0 1232.0 4827.5 1240.0 4824.5 1252.0 4824.0 1255.6 4824.0 1333.4 4822.0 1335.0 4810.0 1335.0 4808.0 1333.5 4808.0 1207.5 4809.9 1206.0 4821.1 1206.0 4823.1 1207.8 4823.9 1225.2 4825.2 1224.8 4830.2 1216.9 4840.4 1208.4 4848.6 1204.6ZM5063.7 1202.1 5083.5 1203.4 5095.8 1207.0 5102.2 1211.4 5109.8 1219.6 5111.4 1222.5 5116.0 1240.5 5116.0 1316.5 5117.0 1319.0 5119.0 1321.0 5122.5 1322.0 5127.5 1322.0 5130.0 1323.6 5130.0 1333.4 5128.0 1335.1 5116.0 1335.9 5112.5 1335.5 5106.8 1332.8 5104.2 1330.2 5102.8 1327.1 5101.2 1315.9 5099.8 1315.3 5088.2 1328.7 5084.5 1331.5 5074.2 1336.8 5064.2 1338.9 5038.8 1338.1 5035.5 1337.4 5026.5 1333.6 5023.8 1331.8 5016.2 1324.2 5014.4 1321.2 5010.6 1310.8 5010.0 1307.0 5010.0 1295.0 5013.0 1284.8 5015.5 1280.2 5021.5 1274.1 5030.5 1268.9 5043.4 1264.5 5086.5 1259.2 5089.8 1258.2 5093.2 1256.8 5096.0 1254.5 5098.0 1251.5 5099.2 1247.5 5099.8 1242.5 5099.6 1238.5 5097.4 1229.5 5095.0 1226.0 5087.5 1219.5 5075.3 1216.0 5058.7 1216.0 5049.5 1218.2 5045.6 1220.1 5037.4 1226.9 5035.2 1229.5 5032.8 1235.5 5031.2 1244.5 5029.0 1245.9 5017.0 1245.1 5015.4 1243.3 5019.6 1226.7 5021.4 1223.4 5029.6 1213.6 5032.8 1211.1 5043.2 1205.9 5047.1 1204.6ZM5318.8 1202.2 5337.2 1203.8 5340.6 1204.8 5356.4 1212.2 5359.4 1214.6 5367.6 1224.4 5369.5 1227.6 5374.8 1245.5 5374.2 1246.5 5372.1 1247.0 5360.9 1247.0 5358.3 1245.4 5351.7 1229.6 5349.9 1227.0 5343.1 1221.0 5339.2 1219.0 5329.5 1216.0 5314.5 1216.0 5304.8 1219.0 5300.4 1221.4 5290.6 1229.6 5288.1 1232.5 5282.9 1241.5 5281.6 1244.6 5277.0 1263.5 5277.0 1278.5 5279.8 1292.2 5283.0 1300.6 5291.2 1313.2 5296.5 1317.9 5305.5 1323.1 5309.0 1324.5 5316.8 1326.0 5327.2 1326.0 5337.2 1323.0 5346.0 1317.5 5352.5 1310.0 5354.5 1306.4 5359.5 1290.6 5361.9 1289.0 5373.1 1289.0 5375.0 1290.8 5374.5 1297.6 5371.5 1307.4 5364.9 1319.5 5362.5 1322.4 5353.5 1330.6 5350.5 1332.6 5335.5 1338.4 5332.2 1338.9 5306.8 1338.1 5303.4 1337.2 5287.6 1329.8 5285.0 1327.9 5269.4 1309.6 5264.7 1298.5 5261.3 1283.5 5261.9 1254.8 5262.6 1251.4 5271.4 1229.6 5273.1 1226.8 5283.9 1215.2 5289.5 1211.0 5306.5 1203.8ZM5491.6 1202.1 5510.5 1203.4 5522.4 1206.9 5533.2 1214.5 5535.8 1217.5 5540.0 1225.0 5541.5 1229.5 5543.0 1238.5 5543.0 1315.5 5544.0 1318.2 5546.0 1320.8 5549.5 1322.0 5554.5 1322.0 5557.0 1323.6 5557.0 1333.4 5555.0 1335.1 5543.0 1335.9 5536.5 1334.5 5533.5 1332.0 5530.5 1328.0 5528.9 1324.5 5528.1 1315.5 5526.8 1315.4 5514.2 1329.6 5510.8 1332.2 5501.2 1336.8 5491.5 1339.0 5470.5 1339.0 5460.8 1336.8 5456.6 1335.1 5448.4 1329.9 5445.5 1327.0 5440.5 1319.4 5437.5 1309.6 5437.0 1296.6 5439.2 1286.8 5441.5 1282.0 5447.6 1275.0 5457.4 1269.0 5470.4 1264.5 5513.5 1259.2 5516.8 1258.2 5520.2 1256.8 5523.0 1254.5 5525.0 1251.5 5526.1 1248.5 5526.9 1239.5 5524.8 1230.5 5522.5 1226.2 5519.5 1222.8 5516.2 1220.4 5502.3 1216.0 5485.7 1216.0 5476.5 1218.2 5472.6 1220.1 5464.4 1226.9 5462.6 1229.5 5458.4 1244.5 5456.1 1246.0 5444.9 1246.0 5443.2 1244.0 5445.8 1228.6 5450.2 1220.4 5456.2 1213.8 5459.8 1211.1 5473.5 1204.8ZM5629.5 1202.1 5644.5 1202.9 5658.2 1207.4 5666.8 1213.2 5669.9 1216.5 5675.1 1225.5 5676.4 1229.0 5679.0 1244.5 5679.0 1333.5 5677.0 1335.0 5665.0 1335.0 5663.0 1333.4 5663.0 1248.6 5660.4 1234.8 5658.9 1231.5 5652.1 1222.5 5645.0 1218.0 5641.2 1216.9 5623.8 1216.1 5620.1 1216.8 5608.9 1221.2 5605.9 1223.1 5599.1 1229.9 5593.5 1239.8 5590.0 1253.6 5590.0 1333.4 5588.0 1335.1 5576.0 1335.9 5574.0 1334.5 5574.0 1207.5 5576.0 1206.0 5588.0 1206.0 5590.1 1207.8 5590.9 1225.2 5591.8 1225.2 5595.1 1218.9 5604.4 1210.2 5615.8 1204.6ZM5751.5 1202.1 5766.5 1202.9 5769.6 1203.7 5785.4 1210.3 5788.2 1212.4 5795.8 1220.6 5798.0 1224.2 5801.5 1233.8 5803.0 1242.5 5803.0 1243.5 5800.9 1244.0 5788.1 1244.0 5786.0 1242.2 5786.0 1238.8 5785.0 1234.8 5780.2 1226.2 5773.4 1220.4 5760.5 1216.0 5745.5 1216.0 5738.8 1217.5 5732.5 1220.2 5730.0 1222.2 5724.0 1229.8 5723.0 1232.6 5723.0 1242.4 5724.2 1245.8 5729.4 1251.7 5746.5 1259.4 5785.5 1268.6 5789.0 1270.2 5796.2 1275.6 5803.8 1285.4 5805.5 1288.8 5807.0 1295.8 5807.0 1306.2 5806.1 1309.9 5800.9 1321.1 5798.9 1324.0 5789.6 1331.5 5769.4 1338.5 5766.4 1339.0 5743.6 1339.0 5740.3 1338.4 5723.7 1332.6 5720.2 1330.8 5713.2 1324.8 5707.5 1316.4 5702.0 1297.8 5702.0 1295.2 5704.0 1294.0 5716.0 1294.0 5718.2 1296.2 5720.0 1305.2 5724.2 1313.1 5731.8 1319.9 5734.9 1321.6 5746.1 1325.4 5750.0 1326.0 5766.2 1325.5 5775.0 1323.0 5782.1 1318.8 5788.9 1311.2 5790.1 1308.4 5790.9 1298.6 5788.8 1291.8 5785.0 1287.0 5782.0 1285.1 5766.4 1278.6 5730.6 1270.4 5726.5 1268.8 5721.5 1266.2 5717.6 1263.4 5709.4 1253.6 5707.8 1249.9 5706.2 1237.1 5706.8 1233.0 5711.2 1221.0 5713.8 1217.2 5721.2 1210.8 5729.8 1206.6ZM3005.5 1204.0 3014.5 1204.0 3016.0 1206.0 3016.0 1218.0 3014.2 1220.1 2999.8 1221.8 2991.0 1225.2 2984.0 1230.2 2974.0 1241.8 2972.4 1245.0 2968.0 1260.6 2968.0 1333.4 2966.1 1335.1 2954.9 1335.9 2953.0 1334.5 2952.0 1207.5 2953.9 1206.0 2965.1 1206.0 2967.1 1207.8 2967.9 1232.2 2968.8 1232.0 2972.0 1224.8 2978.0 1217.2 2980.8 1214.9 2991.2 1208.1 2995.8 1206.2ZM2109.0 1206.0 2121.0 1206.0 2123.0 1207.5 2122.0 1334.5 2120.1 1335.9 2108.9 1335.1 2107.0 1333.5 2107.0 1207.5ZM2360.0 1206.0 2372.0 1206.0 2374.0 1207.5 2374.0 1334.5 2372.0 1335.9 2360.0 1335.1 2358.0 1333.5 2358.0 1207.5ZM5224.0 1206.1 5236.0 1206.9 5238.0 1208.5 5237.0 1334.5 5235.1 1336.0 5223.9 1336.0 5222.0 1334.5 5222.0 1207.5ZM5400.0 1206.0 5412.0 1206.0 5414.0 1207.5 5413.0 1334.5 5411.1 1335.9 5399.9 1335.1 5398.0 1333.5 5398.0 1207.5ZM3968.6 1209.0 3978.4 1209.0 3980.0 1210.6 3980.0 1264.4 3981.6 1266.0 4034.4 1266.0 4036.0 1267.6 4036.0 1277.4 4034.4 1279.0 3981.6 1280.0 3980.0 1281.6 3979.0 1334.4 3977.5 1336.0 3968.5 1336.0 3967.0 1334.4 3966.0 1280.6 3964.4 1279.0 3911.6 1279.0 3910.0 1277.4 3910.0 1267.6 3911.6 1266.0 3965.4 1266.0 3967.0 1264.4 3967.0 1210.6ZM1281.4 1216.6 1271.6 1220.4 1268.6 1222.2 1260.4 1229.8 1258.0 1233.0 1250.6 1248.6 1248.4 1258.4 1248.8 1261.5 1250.6 1262.0 1330.4 1261.0 1331.7 1259.4 1327.2 1240.6 1322.8 1232.4 1316.0 1225.0 1312.1 1222.1 1300.9 1216.9 1297.0 1216.0 1285.0 1216.0ZM1882.0 1216.9 1870.0 1222.1 1866.9 1224.2 1856.1 1236.8 1854.4 1239.8 1848.0 1260.5 1848.0 1281.5 1853.5 1300.4 1855.1 1303.3 1865.9 1316.7 1873.0 1321.8 1882.5 1325.2 1886.9 1326.0 1898.1 1326.0 1901.4 1325.4 1915.6 1319.6 1918.5 1317.4 1927.5 1307.6 1929.7 1304.2 1936.3 1286.8 1937.0 1283.2 1937.0 1258.8 1936.3 1255.2 1929.7 1237.8 1927.9 1234.8 1917.1 1223.2 1914.1 1221.2 1902.9 1216.8 1898.9 1216.0 1886.1 1216.0ZM2448.6 1216.7 2434.4 1223.3 2431.8 1225.4 2424.2 1233.6 2421.8 1237.5 2417.5 1246.9 2414.5 1258.1 2414.0 1261.8 2414.5 1283.5 2416.8 1292.8 2421.2 1303.2 2423.4 1306.6 2434.5 1319.0 2440.5 1322.5 2449.5 1325.5 2452.9 1326.0 2468.0 1325.5 2475.5 1323.1 2484.5 1317.9 2487.4 1315.2 2497.5 1301.6 2503.1 1284.5 2503.9 1263.5 2503.5 1260.2 2498.5 1242.8 2497.0 1239.7 2487.0 1226.3 2483.8 1223.5 2474.8 1218.2 2466.5 1216.0 2451.5 1216.0ZM2857.0 1216.9 2845.0 1222.1 2841.9 1224.2 2831.1 1236.8 2829.4 1239.7 2823.6 1256.3 2823.0 1259.6 2823.0 1282.4 2823.6 1285.7 2829.4 1302.3 2831.1 1305.2 2841.9 1317.8 2844.5 1319.8 2853.5 1324.2 2856.7 1325.1 2873.3 1325.9 2876.4 1325.4 2890.6 1319.6 2893.5 1317.4 2902.5 1307.6 2904.7 1304.2 2911.3 1285.8 2912.0 1282.4 2912.0 1259.6 2911.3 1256.2 2904.7 1237.8 2902.5 1234.4 2893.5 1224.6 2890.0 1222.1 2878.0 1216.9 2873.9 1216.0 2861.1 1216.0ZM4720.2 1216.8 4709.8 1221.2 4706.6 1223.4 4698.4 1231.6 4696.1 1234.9 4689.8 1249.8 4688.2 1260.2 4689.6 1262.0 4769.4 1262.0 4770.8 1260.4 4768.2 1244.6 4767.0 1241.5 4757.0 1226.5 4754.2 1224.0 4743.8 1218.0 4740.3 1216.9 4723.7 1216.1ZM3442.0 1250.5 3442.0 1319.5 3443.5 1321.0 3514.5 1320.0 3517.4 1319.5 3531.6 1314.5 3534.1 1312.9 3540.9 1306.1 3542.6 1303.2 3547.0 1289.4 3546.5 1276.5 3543.5 1267.5 3541.9 1264.9 3535.1 1258.1 3532.3 1256.4 3512.5 1250.0 3443.5 1249.0ZM2233.5 1267.2 2224.3 1271.2 2186.7 1276.8 2171.9 1283.1 2169.1 1285.2 2163.9 1292.8 2163.0 1295.6 2163.0 1305.4 2165.2 1312.2 2167.2 1315.1 2174.8 1321.9 2178.2 1323.8 2186.7 1325.9 2203.3 1325.1 2206.8 1324.2 2220.1 1318.0 2226.9 1312.0 2228.9 1309.4 2234.1 1299.6 2235.1 1296.4 2235.9 1267.6ZM4420.6 1266.6 4409.3 1271.2 4372.7 1276.8 4358.8 1282.2 4356.0 1284.2 4350.0 1291.8 4348.8 1295.8 4348.2 1301.2 4348.8 1306.2 4352.1 1314.1 4358.9 1320.9 4362.8 1323.0 4372.8 1326.0 4386.5 1325.5 4401.5 1320.5 4405.2 1318.2 4413.0 1311.4 4419.0 1301.6 4420.5 1298.0 4422.0 1290.4 4422.0 1267.6ZM5097.5 1266.8 5096.5 1268.2 5094.2 1269.5 5087.5 1271.2 5050.5 1276.5 5041.5 1279.5 5034.0 1283.8 5031.2 1286.4 5026.8 1294.6 5026.0 1298.5 5026.0 1303.5 5027.0 1308.2 5031.5 1316.5 5037.6 1321.6 5047.4 1325.4 5050.6 1325.9 5066.4 1325.1 5069.4 1324.3 5083.6 1317.7 5086.8 1315.2 5092.8 1308.6 5097.2 1300.4 5098.5 1296.2 5100.0 1286.2 5100.0 1267.8 5099.5 1266.0ZM5525.0 1266.5 5525.0 1267.5 5523.8 1268.5 5518.3 1270.2 5478.5 1276.6 5460.8 1284.0 5458.2 1286.0 5456.0 1289.2 5454.0 1293.8 5453.0 1298.2 5453.6 1306.4 5457.4 1314.6 5459.2 1317.2 5464.6 1321.6 5474.4 1325.4 5477.6 1325.9 5493.4 1325.1 5509.0 1318.9 5512.1 1316.9 5518.9 1310.1 5520.8 1307.4 5526.1 1294.5 5526.9 1267.5 5526.5 1266.0Z"/><circle cx="4981.5" cy="74.8" r="75.4" fill="#feb144"/><circle cx="5468.9" cy="318.5" r="75.1" fill="#9ee09e"/><circle cx="4494.1" cy="562.3" r="75.3" fill="#ff6663"/><circle cx="4981.5" cy="562.3" r="75.2" fill="#fdfd97"/><circle cx="5468.9" cy="562.3" r="74.9" fill="#9ec1cf"/><circle cx="5468.9" cy="806.0" r="75.3" fill="#996633"/><circle cx="5747.5" cy="806.0" r="74.9" fill="#cc99c9"/></svg>